<?xml version="1.0" encoding="utf-8"?>
<svg style="shape-rendering:geometricPrecision;text-rendering:geometricPrecision;image-rendering:optimizeQuality;" viewBox="0.608 -0.095 6.716 6.628" x="0px" y="0px" fill-rule="evenodd" clip-rule="evenodd" xmlns="http://www.w3.org/2000/svg">
 <defs>
  <style type="text/css">
   
    .fil1 {fill:none}
    .fil0 {fill:black}
   
  </style>
 </defs>
 <g>
  <g>
   <g>
    <path class="fil0" d="M3.20776 2.16142l0.654185 -0.654185c0.0208268,-0.0208268 0.0546024,-0.0208268 0.0754291,0 0.0497756,0.0497756 0.115457,0.0746693 0.181154,0.0746693 0.0657008,0 0.131382,-0.0248937 0.181157,-0.0746693 0.0208268,-0.0208268 0.0545984,-0.0208268 0.0754252,0l0.572346 0.572346c0.0208268,0.0208268 0.0208268,0.0545984 0,0.0754252 -0.0497756,0.0497756 -0.0746693,0.115457 -0.0746693,0.181157 0,0.0656969 0.0248937,0.131378 0.0746693,0.181154 0.0208268,0.0208268 0.0208268,0.0546024 0,0.0754291l-0.10637 0.10637c0.0473858,0.073563 0.0752717,0.159449 0.0752717,0.24526l0 0.0985157 0.800244 -0.800244c0.0208268,-0.0208268 0.0208268,-0.0545984 0,-0.0754252l-1.42913 -1.42913c-0.0208268,-0.0208268 -0.0546024,-0.0208268 -0.0754291,0l-1.3398 1.3398 0.335516 0.0835276z" style="fill: rgb(254, 254, 254); stroke: rgb(0, 0, 0); stroke-width: 0.1px; stroke-opacity: 0.68;"/>
    <path class="fil0" d="M4.77358 2.61577l0.0635236 -0.0635236c-0.0473071,-0.0638425 -0.0709685,-0.139976 -0.0709685,-0.216083 0,-0.0761063 0.0236614,-0.15224 0.0709685,-0.216083l-0.502492 -0.502492c-0.0638425,0.0473071 -0.139976,0.0709685 -0.216083,0.0709685 -0.0761063,0 -0.15224,-0.0236614 -0.216083,-0.0709685l-0.573902 0.573902 0.610039 0.15187c-0.00387008,-0.017748 -0.00566929,-0.0362677 -0.0051063,-0.0553071 0.00385039,-0.13002 0.116228,-0.231071 0.247386,-0.218941 0.114602,0.0106024 0.204173,0.107378 0.205673,0.222646 0.00073622,0.0569173 -0.0197598,0.109319 -0.0541063,0.14965l0.244815 0.0609488c0.0741732,0.0184646 0.141535,0.0591417 0.196335,0.113413z" style="fill: rgb(254, 254, 254); stroke: rgb(0, 0, 0); stroke-width: 0.1px; stroke-opacity: 0.68;"/>
    <path class="fil0" d="M4.03989 2.30064c0.00144094,0.0293898 0.0134409,0.055878 0.0321535,0.0759409l0.127366 0.0317087c0.0483189,-0.0167795 0.0823583,-0.0634016 0.0806929,-0.117228 -0.0018622,-0.0604213 -0.0488622,-0.1105 -0.109008,-0.116035 -0.0730315,-0.0067126 -0.134772,0.0529331 -0.131205,0.125614z" style="fill: rgb(254, 254, 254); stroke: rgb(0, 0, 0); stroke-width: 0.1px; stroke-opacity: 0.68;"/>
   </g>
   <path class="fil0" d="M1.29487 1.6852l1.81921 0 -0.362622 0.362622 -1.45659 -0.362622zm4.09056 0l0.313673 0c0.150831,0 0.274228,0.123398 0.274228,0.274224l0 2.94246c0,0.150823 -0.123398,0.27422 -0.274228,0.27422l-0.782744 0 0 -1.98236 0.875669 -0.875669c0.0624528,-0.0624567 0.0624528,-0.163819 0,-0.226276l-0.406598 -0.406598z" style="fill: rgb(254, 254, 254); stroke: rgb(0, 0, 0); stroke-width: 0.1px; stroke-opacity: 0.68;"/>
   <path class="fil0" d="M1.11155 1.74948l3.43993 0.856382c0.14202,0.0353583 0.258217,0.187685 0.258217,0.338512l0 2.94246c0,0.150823 -0.116197,0.245295 -0.258217,0.209937l-3.43993 -0.856386c-0.14202,-0.0353543 -0.258217,-0.187681 -0.258217,-0.338504l0 -2.94246c0,-0.150827 0.116197,-0.245299 0.258217,-0.209941zm3.23879 3.52975c-0.05,-0.0156496 -0.100547,-0.00536614 -0.141823,0.0239016 -0.0413346,0.0292992 -0.0733976,0.0775906 -0.086378,0.137921 -0.0129764,0.0603031 -0.00444488,0.121252 0.0198228,0.171024 0.0236181,0.0484449 0.0621142,0.0863228 0.110181,0.10278 0.00265354,0.00117717 0.0054252,0.00205118 0.00829134,0.00259843 0.0486575,0.0138504 0.0975709,0.00335039 0.137728,-0.0251181 0.0401693,-0.0284803 0.0715787,-0.0748937 0.0852323,-0.132858 0.000976378,-0.00320079 0.00170079,-0.00655118 0.00215354,-0.0100118 0.0114803,-0.0586811 0.00277559,-0.117665 -0.0208307,-0.166079 -0.0242992,-0.0498386 -0.0643504,-0.0885039 -0.114378,-0.104157z" style="fill: rgb(254, 254, 254); stroke: rgb(0, 0, 0); stroke-width: 0.1px; stroke-opacity: 0.68;"/>
  </g>
 </g>
 <rect class="fil1" width="6.82666" height="6.82666"/>
 <text x="0" y="21.82666" fill="#000000" font-size="5px" font-weight="bold" font-family="'Helvetica Neue', Helvetica, Arial-Unicode, Arial, Sans-serif" style="white-space: pre;"> </text>
 <g transform="matrix(-0.027337, 0, 0, -0.028085, 7.074852, 29.455799)" style="">
  <path d="M 60.911 1024.754 L 60.911 1011.603 C 60.888 1010.227 59.887 1009.109 57.987 1008.894 C 41.546 1007.738 27.005 1002.688 16.459 992.888 C 8.59 985.577 2.879 975.545 0.39 962.25 C 5.701 970.48 12.921 976.524 20.908 980.677 C 32.893 986.909 46.485 988.947 57.987 988.083 C 59.921 987.849 60.907 986.987 60.912 985.482 L 60.912 970.669 L 92.76 997.693 Z" style="text-indent: 0px; text-transform: none; direction: ltr; baseline-shift: baseline; color: rgb(0, 0, 0); fill: rgb(60, 155, 20); stroke: rgb(0, 0, 0);" fill-opacity="1" fill-rule="evenodd" marker="none" visibility="visible" display="inline" overflow="visible" transform="matrix(-0.707107, 0.688274, -0.726455, -0.707107, 801.242535, 1663.957889)"/>
 </g>
</svg>